<svg width="90" height="89" viewBox="0 0 90 89" fill="none" xmlns="http://www.w3.org/2000/svg">
<path d="M47.7049 31.0993C46.1944 29.5887 45.4392 28.8335 44.5007 28.8335C43.5621 28.8335 42.8069 29.5887 41.2964 31.0993C40.3899 32.0057 39.4917 32.4265 38.1994 32.4265C37.0711 32.4265 35.4658 32.2077 34.584 33.0969C33.7092 33.979 33.927 35.5778 33.927 36.6989C33.927 37.9912 33.5062 38.8894 32.5997 39.7959C31.0892 41.3064 30.334 42.0616 30.334 43.0002C30.334 43.9386 31.0893 44.6939 32.5998 46.2044C33.6152 47.2198 33.927 47.8755 33.927 49.3014C33.927 50.4297 33.7082 52.0351 34.5974 52.9168C35.4796 53.7916 37.0783 53.5737 38.1994 53.5737C39.5756 53.5737 40.2383 53.8429 41.2205 54.8251C42.0568 55.6615 43.1779 57.1668 44.5007 57.1668C45.8234 57.1668 46.9445 55.6615 47.7808 54.8251C48.763 53.8429 49.4257 53.5737 50.8018 53.5737C51.923 53.5737 53.5217 53.7916 54.4039 52.9168M54.4039 52.9168C55.2931 52.0351 55.0742 50.4297 55.0742 49.3014C55.0742 47.8755 55.386 47.2198 56.4015 46.2044C57.9121 44.6939 58.6673 43.9386 58.6673 43.0002C58.6673 42.0616 57.9121 41.3064 56.4015 39.7959M54.4039 52.9168H54.4173" stroke="#1F8340" stroke-width="1.5" stroke-linecap="round" stroke-linejoin="round"/>
<path d="M38.834 40.6027C38.834 40.6027 42.0215 40.1668 44.5007 45.8335C44.5007 45.8335 51.6673 31.6668 58.6673 28.8335" stroke="#1F8340" stroke-width="1.5" stroke-linecap="round" stroke-linejoin="round"/>
<g filter="url(#filter0_f_696_266)">
<circle cx="44.7857" cy="44.2857" r="24.2857" fill="#1F8340" fill-opacity="0.1"/>
</g>
<defs>
<filter id="filter0_f_696_266" x="0.5" y="0" width="88.5723" height="88.5713" filterUnits="userSpaceOnUse" color-interpolation-filters="sRGB">
<feFlood flood-opacity="0" result="BackgroundImageFix"/>
<feBlend mode="normal" in="SourceGraphic" in2="BackgroundImageFix" result="shape"/>
<feGaussianBlur stdDeviation="10" result="effect1_foregroundBlur_696_266"/>
</filter>
</defs>
</svg>
