<svg width="26" height="26" viewBox="0 0 26 26" fill="none" xmlns="http://www.w3.org/2000/svg">
<path d="M21.9173 10.8918C22.4373 10.3069 23.3343 9.42288 23.2865 9.06287C23.3233 8.71272 23.1337 8.38378 22.7547 7.72593L22.22 6.79795C21.8156 6.09613 21.6134 5.74522 21.2693 5.60529C20.9253 5.46536 20.5362 5.57578 19.758 5.79661L18.4361 6.16895C17.9392 6.28351 17.418 6.21852 16.9643 5.98545L16.5994 5.77488C16.2105 5.52572 15.9112 5.15836 15.7456 4.72656L15.3838 3.64605C15.146 2.93104 15.027 2.57353 14.7438 2.36904C14.4607 2.16455 14.0845 2.16455 13.3324 2.16455H12.1247C11.3724 2.16455 10.9963 2.16455 10.7132 2.36904C10.43 2.57353 10.3111 2.93104 10.0732 3.64605L9.71146 4.72656C9.54582 5.15836 9.2466 5.52572 8.85758 5.77488L8.4926 5.98545C8.03901 6.21852 7.51771 6.28351 7.02089 6.16895L5.69902 5.79661C4.92086 5.57578 4.53173 5.46536 4.18766 5.60529C3.8436 5.74522 3.64145 6.09613 3.23704 6.79795L2.7023 7.72593C2.32326 8.38378 2.13378 8.71272 2.17051 9.06287C2.20734 9.41303 2.46106 9.6952 2.96848 10.2596L4.0855 11.5082C4.3584 11.8538 4.55231 12.4562 4.55231 12.9976C4.55231 13.5395 4.3585 14.1416 4.0855 14.4873L2.96848 15.7361C2.46106 16.3004 2.20734 16.5826 2.17051 16.9327C2.13378 17.283 2.32326 17.6119 2.7023 18.2697L3.23704 19.1976C3.64145 19.8994 3.8436 20.2504 4.18766 20.3903C4.53173 20.5302 4.92086 20.4199 5.69902 20.199L7.02089 19.8266C7.51782 19.712 8.03912 19.7771 8.49282 20.0102L8.85769 20.2208C9.24671 20.47 9.54582 20.8373 9.71135 21.2691L10.0732 22.3497C10.3111 23.0647 10.4426 23.4364 10.6593 23.5928C10.7243 23.6398 10.9843 23.8528 11.6213 23.8333" stroke="#030303" stroke-width="1.5" stroke-linecap="round"/>
<path d="M16.25 18.6529C16.25 18.6529 17.3333 18.9606 17.875 20.0439C17.875 20.0439 19.0625 17.3356 20.592 16.7939" stroke="#030303" stroke-width="1.5" stroke-linecap="round" stroke-linejoin="round"/>
<path d="M23.8333 18.4147C23.8333 21.4062 21.4082 23.8314 18.4167 23.8314C15.4251 23.8314 13 21.4062 13 18.4147C13 15.4232 15.4251 12.998 18.4167 12.998C21.4082 12.998 23.8333 15.4232 23.8333 18.4147Z" stroke="#030303" stroke-width="1.5" stroke-linecap="round"/>
<path d="M15.3394 10.2287C14.4294 9.48766 13.7144 9.20166 12.6744 9.20166C10.7244 9.22766 8.94336 10.8386 8.94336 12.9326C8.94336 14.0871 9.29436 14.8176 9.95736 15.5846" stroke="#030303" stroke-width="1.5" stroke-linecap="round"/>
</svg>
