<svg width="75" height="76" viewBox="0 0 75 76" fill="none" xmlns="http://www.w3.org/2000/svg">
<path d="M24.2546 39.8841C24.4085 39.0445 25.0855 38.1861 26.1781 37.4452C28.1453 36.111 30.3922 36.1165 32.6411 36.0332C33.3874 36.0055 35.3915 35.9964 37.5003 36.0012C39.6091 35.9964 41.6133 36.0055 42.3595 36.0332C44.6085 36.1165 46.8553 36.111 48.8226 37.4452C49.9151 38.1861 50.5922 39.0445 50.7461 39.8841C50.8782 40.6048 50.8578 43.0779 50.7054 44.8231C50.625 45.7431 50.5433 46.1909 50.4211 46.3792C50.0527 46.9471 48.9891 47.4247 47.4246 47.7245C45.9563 48.006 46.1746 48 37.5003 48C28.826 48 29.0443 48.006 27.5761 47.7245C26.0115 47.4247 24.948 46.9471 24.5795 46.3792C24.4574 46.1909 24.3756 45.7431 24.2953 44.8231C24.1428 43.0779 24.1225 40.6048 24.2546 39.8841Z" stroke="#1F8340" stroke-width="1.5" stroke-linecap="round" stroke-linejoin="round"/>
<path d="M27.5 36L29.251 29.9868C29.4118 29.5868 29.7244 29.2527 30.1649 29.1029C34.4889 27.6324 40.5111 27.6324 44.8351 29.1029C45.2756 29.2527 45.5881 29.5868 45.7491 29.9868L47.5 36" stroke="#1F8340" stroke-width="1.5" stroke-linecap="round" stroke-linejoin="round"/>
<path d="M24.833 40L26.833 40.6667" stroke="#1F8340" stroke-width="1.5" stroke-linecap="round" stroke-linejoin="round"/>
<path d="M50.167 40L48.167 40.6667" stroke="#1F8340" stroke-width="1.5" stroke-linecap="round" stroke-linejoin="round"/>
<path d="M32.167 47.3333L32.4946 46.5144C32.9817 45.2967 33.2252 44.6877 33.7331 44.3439C34.241 44 34.8969 44 36.2085 44H38.7922C40.1038 44 40.7597 44 41.2675 44.3439C41.7754 44.6877 42.019 45.2967 42.5061 46.5144L42.8337 47.3333" stroke="#1F8340" stroke-width="1.5" stroke-linecap="round" stroke-linejoin="round"/>
<path d="M30.8355 48.7497V49.8192C30.8356 50.9851 30.7845 51.2035 30.4326 51.5439C30.3296 51.6433 30.1203 51.7868 29.9675 51.8625C29.7 51.9949 29.6103 52 27.5369 52C25.417 52 25.379 51.9977 25.0524 51.8501C24.8699 51.7676 24.6396 51.6028 24.5408 51.4837C24.1917 51.0637 24.1751 50.9399 24.1719 48.7279L24.1728 44" stroke="#1F8340" stroke-width="1.5" stroke-linecap="round"/>
<path d="M44.1641 48.7497V49.8192C44.1639 50.9851 44.215 51.2035 44.567 51.5439C44.6699 51.6433 44.8793 51.7868 45.0321 51.8625C45.2995 51.9949 45.3893 52 47.4626 52C49.5826 52 49.6205 51.9977 49.9471 51.8501C50.1297 51.7676 50.3599 51.6028 50.4587 51.4837C50.8078 51.0637 50.8243 50.9399 50.8277 48.7279L50.8267 44" stroke="#1F8340" stroke-width="1.5" stroke-linecap="round"/>
<path d="M48.167 35.9999L50.167 35.3333" stroke="#1F8340" stroke-width="1.5" stroke-linecap="round" stroke-linejoin="round"/>
<path d="M26.833 35.9999L24.833 35.3333" stroke="#1F8340" stroke-width="1.5" stroke-linecap="round" stroke-linejoin="round"/>
<g filter="url(#filter0_f_404_186)">
<circle cx="37.5003" cy="38" r="17.1429" fill="#1F8340" fill-opacity="0.1"/>
</g>
<defs>
<filter id="filter0_f_404_186" x="0.357422" y="0.857178" width="74.2861" height="74.2856" filterUnits="userSpaceOnUse" color-interpolation-filters="sRGB">
<feFlood flood-opacity="0" result="BackgroundImageFix"/>
<feBlend mode="normal" in="SourceGraphic" in2="BackgroundImageFix" result="shape"/>
<feGaussianBlur stdDeviation="10" result="effect1_foregroundBlur_404_186"/>
</filter>
</defs>
</svg>
