<svg width="33" height="32" viewBox="0 0 33 32" fill="none" xmlns="http://www.w3.org/2000/svg">
<g clip-path="url(#clip0_896_671)">
<path fill-rule="evenodd" clip-rule="evenodd" d="M3.85938 4H29.8594L30.8594 5V16.006C30.2401 15.5412 29.5689 15.1499 28.8594 14.84V6H4.85938V24H14.8594C14.8594 26.1637 15.5612 28.269 16.8594 30H8.85938V28H14.8594V26H3.85938L2.85938 25V5L3.85938 4Z" fill="white"/>
<path fill-rule="evenodd" clip-rule="evenodd" d="M20.4157 17.3479C21.2891 16.7577 22.2705 16.346 23.3036 16.1364C24.3366 15.9267 25.4009 15.9233 26.4353 16.1263C27.4697 16.3293 28.4537 16.7348 29.3309 17.3193C30.2081 17.9039 30.9611 18.656 31.5467 19.5325C32.1322 20.409 32.5388 21.3926 32.743 22.4267C32.9472 23.4609 32.945 24.5252 32.7366 25.5584C32.5282 26.5917 32.1176 27.5736 31.5285 28.4478C30.9393 29.3219 30.1832 30.0709 29.3037 30.6519C27.5393 31.8172 25.3854 32.2367 23.3127 31.8186C21.24 31.4005 19.4171 30.1788 18.2425 28.4206C17.0679 26.6624 16.6371 24.5107 17.0443 22.4358C17.4516 20.3609 18.6637 18.5317 20.4157 17.3479ZM24.6757 27.3279L29.4497 20.9639L27.8497 19.7639L23.6957 25.3019L21.0937 23.2199L19.8437 24.7799L23.2517 27.5079L24.6777 27.3279H24.6757Z" fill="white"/>
</g>
<defs>
<clipPath id="clip0_896_671">
<rect width="32" height="32" fill="white" transform="translate(0.859375)"/>
</clipPath>
</defs>
</svg>
