<svg width="33" height="33" viewBox="0 0 33 33" fill="none" xmlns="http://www.w3.org/2000/svg">
<g clip-path="url(#clip0_896_679)">
<path d="M12.6989 31.0505C12.2913 29.8815 11.5301 28.8684 10.5208 28.1514C9.51154 27.4345 8.30424 27.0494 7.06626 27.0494C5.82828 27.0494 4.62098 27.4345 3.61171 28.1514C2.60245 28.8684 1.84123 29.8815 1.43359 31.0505M31.1003 13.3838C30.6923 12.2153 29.9311 11.2026 28.922 10.4861C27.9129 9.76956 26.7059 9.38461 25.4683 9.38461C24.2306 9.38461 23.0236 9.76956 22.0145 10.4861C21.0054 11.2026 20.2442 12.2153 19.8363 13.3838M7.06693 26.0505C7.99518 26.0505 8.88542 25.6817 9.5418 25.0253C10.1982 24.369 10.5669 23.4787 10.5669 22.5505C10.5669 21.6222 10.1982 20.732 9.5418 20.0756C8.88542 19.4192 7.99518 19.0505 7.06693 19.0505C6.13867 19.0505 5.24843 19.4192 4.59205 20.0756C3.93568 20.732 3.56693 21.6222 3.56693 22.5505C3.56693 23.4787 3.93568 24.369 4.59205 25.0253C5.24843 25.6817 6.13867 26.0505 7.06693 26.0505ZM25.4683 8.38379C25.9279 8.38379 26.383 8.29326 26.8077 8.11737C27.2323 7.94148 27.6181 7.68367 27.9431 7.35866C28.2681 7.03366 28.5259 6.64782 28.7018 6.22318C28.8777 5.79854 28.9683 5.34342 28.9683 4.88379C28.9683 4.42416 28.8777 3.96904 28.7018 3.5444C28.5259 3.11976 28.2681 2.73392 27.9431 2.40892C27.6181 2.08391 27.2323 1.8261 26.8077 1.65021C26.383 1.47432 25.9279 1.38379 25.4683 1.38379C24.54 1.38379 23.6498 1.75254 22.9934 2.40892C22.337 3.06529 21.9683 3.95553 21.9683 4.88379C21.9683 5.81205 22.337 6.70229 22.9934 7.35866C23.6498 8.01504 24.54 8.38379 25.4683 8.38379Z" stroke="white" stroke-width="1.5" stroke-linecap="round" stroke-linejoin="round"/>
<path d="M15.7676 26.8838C15.635 26.8838 15.5078 26.8311 15.414 26.7373C15.3203 26.6436 15.2676 26.5164 15.2676 26.3838C15.2676 26.2512 15.3203 26.124 15.414 26.0302C15.5078 25.9365 15.635 25.8838 15.7676 25.8838M15.7676 26.8838C15.9002 26.8838 16.0274 26.8311 16.1211 26.7373C16.2149 26.6436 16.2676 26.5164 16.2676 26.3838C16.2676 26.2512 16.2149 26.124 16.1211 26.0302C16.0274 25.9365 15.9002 25.8838 15.7676 25.8838M19.7676 22.8838C19.635 22.8838 19.5078 22.8311 19.414 22.7373C19.3203 22.6436 19.2676 22.5164 19.2676 22.3838C19.2676 22.2512 19.3203 22.124 19.414 22.0302C19.5078 21.9365 19.635 21.8838 19.7676 21.8838M19.7676 22.8838C19.9002 22.8838 20.0274 22.8311 20.1211 22.7373C20.2149 22.6436 20.2676 22.5164 20.2676 22.3838C20.2676 22.2512 20.2149 22.124 20.1211 22.0302C20.0274 21.9365 19.9002 21.8838 19.7676 21.8838M23.7676 18.8838C23.635 18.8838 23.5078 18.8311 23.414 18.7373C23.3203 18.6436 23.2676 18.5164 23.2676 18.3838C23.2676 18.2512 23.3203 18.124 23.414 18.0302C23.5078 17.9365 23.635 17.8838 23.7676 17.8838M23.7676 18.8838C23.9002 18.8838 24.0274 18.8311 24.1211 18.7373C24.2149 18.6436 24.2676 18.5164 24.2676 18.3838C24.2676 18.2512 24.2149 18.124 24.1211 18.0302C24.0274 17.9365 23.9002 17.8838 23.7676 17.8838" stroke="white" stroke-width="1.5"/>
<path d="M7.46289 13.6162C9.05419 13.6162 10.5803 12.9841 11.7055 11.8589C12.8308 10.7336 13.4629 9.20751 13.4629 7.61621C13.4629 6.02491 12.8308 4.49879 11.7055 3.37357C10.5803 2.24835 9.05419 1.61621 7.46289 1.61621C5.87159 1.61621 4.34547 2.24835 3.22025 3.37357C2.09503 4.49879 1.46289 6.02491 1.46289 7.61621C1.46289 9.20751 2.09503 10.7336 3.22025 11.8589C4.34547 12.9841 5.87159 13.6162 7.46289 13.6162Z" stroke="white" stroke-width="1.5" stroke-linecap="round" stroke-linejoin="round"/>
<path d="M5.0625 8.21543L6.36117 9.5141C6.42272 9.57567 6.49694 9.62311 6.57867 9.65312C6.6604 9.68313 6.74768 9.695 6.83445 9.68789C6.92123 9.68079 7.00542 9.65489 7.08117 9.61198C7.15693 9.56907 7.22245 9.51019 7.27317 9.43943L9.8625 5.81543" stroke="white" stroke-width="1.5" stroke-linecap="round" stroke-linejoin="round"/>
</g>
<defs>
<clipPath id="clip0_896_679">
<rect width="32" height="32" fill="white" transform="translate(0.28125 0.333008)"/>
</clipPath>
</defs>
</svg>
