<svg width="76" height="76" viewBox="0 0 76 76" fill="none" xmlns="http://www.w3.org/2000/svg">
<path d="M38 52.3337C43.5228 52.3337 48 47.8565 48 42.3337C48 41.0003 48 38.3337 45.3333 35.0003C45.3333 35.0003 45.2005 38.8051 42.5683 38.2547C38.3108 37.3646 43.8068 29.0043 36 25.667C36 32.3337 28 34.3337 28 42.3337C28 47.8565 32.4771 52.3337 38 52.3337Z" stroke="#EFEB05" stroke-width="1.5" stroke-linejoin="round"/>
<path d="M38.0007 48.3351C40.578 48.3351 42.6673 45.6489 42.6673 42.3351C38.4007 43.9351 36.8896 40.2509 36.6673 37.667C34.7397 38.4046 33.334 41.4345 33.334 43.0003C33.334 46.3141 35.4233 48.3351 38.0007 48.3351Z" stroke="#EFEB05" stroke-width="1.5" stroke-linejoin="round"/>
<g filter="url(#filter0_f_863_698)">
<circle cx="38.0003" cy="38.0003" r="17.1429" fill="#1F8340" fill-opacity="0.1"/>
</g>
<defs>
<filter id="filter0_f_863_698" x="0.857422" y="0.857422" width="74.2852" height="74.2861" filterUnits="userSpaceOnUse" color-interpolation-filters="sRGB">
<feFlood flood-opacity="0" result="BackgroundImageFix"/>
<feBlend mode="normal" in="SourceGraphic" in2="BackgroundImageFix" result="shape"/>
<feGaussianBlur stdDeviation="10" result="effect1_foregroundBlur_863_698"/>
</filter>
</defs>
</svg>
