<svg width="147" height="45" viewBox="0 0 147 45" fill="none" xmlns="http://www.w3.org/2000/svg">
<g filter="url(#filter0_d_12_93)">
<rect x="3" y="1" width="141" height="39" rx="10" fill="white"/>
<g filter="url(#filter1_f_12_93)">
<circle cx="23" cy="20.5" r="8" fill="#1F8340" fill-opacity="0.5"/>
</g>
<path d="M29 19.9555V18.0202C29 16.9269 29 16.3802 28.7306 16.0235C28.4612 15.6669 27.8521 15.4937 26.6338 15.1474C25.8015 14.9108 25.0677 14.6257 24.4815 14.3655C23.6823 14.0107 23.2827 13.8333 23 13.8333C22.7173 13.8333 22.3177 14.0107 21.5185 14.3655C20.9323 14.6257 20.1986 14.9108 19.3662 15.1474C18.148 15.4937 17.5388 15.6669 17.2694 16.0235C17 16.3802 17 16.9269 17 18.0202V19.9555C17 23.7057 20.3752 25.9557 22.0627 26.8463C22.4674 27.0599 22.6697 27.1667 23 27.1667C23.3303 27.1667 23.5326 27.0599 23.9373 26.8463C25.6248 25.9557 29 23.7057 29 19.9555Z" fill="#1F8340"/>
<path d="M26.3333 20.5C26.3333 22.3409 24.8409 23.8333 23 23.8333C21.159 23.8333 19.6666 22.3409 19.6666 20.5C19.6666 18.6591 21.159 17.1667 23 17.1667C24.8409 17.1667 26.3333 18.6591 26.3333 20.5Z" fill="white"/>
<path d="M21.6666 20.8333C21.6666 20.8333 22 20.8333 22.3333 21.5C22.3333 21.5 23.3921 19.8333 24.3333 19.5" stroke="#1F8340" stroke-width="1.5" stroke-linecap="round" stroke-linejoin="round"/>
<path d="M44.07 11.02V15.34C44.07 15.8133 44.1933 16.1767 44.44 16.43C44.6867 16.6767 45.0333 16.8 45.48 16.8C45.9333 16.8 46.2833 16.6767 46.53 16.43C46.7767 16.1767 46.9 15.8133 46.9 15.34V11.02H48.31V15.33C48.31 15.9233 48.18 16.4267 47.92 16.84C47.6667 17.2467 47.3233 17.5533 46.89 17.76C46.4633 17.9667 45.9867 18.07 45.46 18.07C44.94 18.07 44.4667 17.9667 44.04 17.76C43.62 17.5533 43.2867 17.2467 43.04 16.84C42.7933 16.4267 42.67 15.9233 42.67 15.33V11.02H44.07ZM51.0627 10.6V18H49.6627V10.6H51.0627ZM54.0759 13.61V16.29C54.0759 16.4767 54.1192 16.6133 54.2059 16.7C54.2992 16.78 54.4525 16.82 54.6659 16.82H55.3159V18H54.4359C53.2559 18 52.6659 17.4267 52.6659 16.28V13.61H52.0059V12.46H52.6659V11.09H54.0759V12.46H55.3159V13.61H54.0759ZM57.0328 11.8C56.7861 11.8 56.5795 11.7233 56.4128 11.57C56.2528 11.41 56.1728 11.2133 56.1728 10.98C56.1728 10.7467 56.2528 10.5533 56.4128 10.4C56.5795 10.24 56.7861 10.16 57.0328 10.16C57.2795 10.16 57.4828 10.24 57.6428 10.4C57.8095 10.5533 57.8928 10.7467 57.8928 10.98C57.8928 11.2133 57.8095 11.41 57.6428 11.57C57.4828 11.7233 57.2795 11.8 57.0328 11.8ZM57.7228 12.46V18H56.3228V12.46H57.7228ZM65.986 12.38C66.666 12.38 67.2127 12.59 67.626 13.01C68.046 13.4233 68.256 14.0033 68.256 14.75V18H66.856V14.94C66.856 14.5067 66.746 14.1767 66.526 13.95C66.306 13.7167 66.006 13.6 65.626 13.6C65.246 13.6 64.9427 13.7167 64.716 13.95C64.496 14.1767 64.386 14.5067 64.386 14.94V18H62.986V14.94C62.986 14.5067 62.876 14.1767 62.656 13.95C62.436 13.7167 62.136 13.6 61.756 13.6C61.3693 13.6 61.0627 13.7167 60.836 13.95C60.616 14.1767 60.506 14.5067 60.506 14.94V18H59.106V12.46H60.506V13.13C60.686 12.8967 60.916 12.7133 61.196 12.58C61.4827 12.4467 61.796 12.38 62.136 12.38C62.5693 12.38 62.956 12.4733 63.296 12.66C63.636 12.84 63.8993 13.1 64.086 13.44C64.266 13.12 64.526 12.8633 64.866 12.67C65.2127 12.4767 65.586 12.38 65.986 12.38ZM69.2245 15.21C69.2245 14.65 69.3345 14.1533 69.5545 13.72C69.7812 13.2867 70.0845 12.9533 70.4645 12.72C70.8512 12.4867 71.2812 12.37 71.7545 12.37C72.1679 12.37 72.5279 12.4533 72.8345 12.62C73.1479 12.7867 73.3979 12.9967 73.5845 13.25V12.46H74.9945V18H73.5845V17.19C73.4045 17.45 73.1545 17.6667 72.8345 17.84C72.5212 18.0067 72.1579 18.09 71.7445 18.09C71.2779 18.09 70.8512 17.97 70.4645 17.73C70.0845 17.49 69.7812 17.1533 69.5545 16.72C69.3345 16.28 69.2245 15.7767 69.2245 15.21ZM73.5845 15.23C73.5845 14.89 73.5179 14.6 73.3845 14.36C73.2512 14.1133 73.0712 13.9267 72.8445 13.8C72.6179 13.6667 72.3745 13.6 72.1145 13.6C71.8545 13.6 71.6145 13.6633 71.3945 13.79C71.1745 13.9167 70.9945 14.1033 70.8545 14.35C70.7212 14.59 70.6545 14.8767 70.6545 15.21C70.6545 15.5433 70.7212 15.8367 70.8545 16.09C70.9945 16.3367 71.1745 16.5267 71.3945 16.66C71.6212 16.7933 71.8612 16.86 72.1145 16.86C72.3745 16.86 72.6179 16.7967 72.8445 16.67C73.0712 16.5367 73.2512 16.35 73.3845 16.11C73.5179 15.8633 73.5845 15.57 73.5845 15.23ZM77.9919 13.61V16.29C77.9919 16.4767 78.0352 16.6133 78.1219 16.7C78.2152 16.78 78.3685 16.82 78.5819 16.82H79.2319V18H78.3519C77.1719 18 76.5819 17.4267 76.5819 16.28V13.61H75.9219V12.46H76.5819V11.09H77.9919V12.46H79.2319V13.61H77.9919ZM85.3888 15.11C85.3888 15.31 85.3755 15.49 85.3488 15.65H81.2988C81.3322 16.05 81.4722 16.3633 81.7188 16.59C81.9655 16.8167 82.2688 16.93 82.6288 16.93C83.1488 16.93 83.5188 16.7067 83.7388 16.26H85.2488C85.0888 16.7933 84.7822 17.2333 84.3288 17.58C83.8755 17.92 83.3188 18.09 82.6588 18.09C82.1255 18.09 81.6455 17.9733 81.2188 17.74C80.7988 17.5 80.4688 17.1633 80.2288 16.73C79.9955 16.2967 79.8788 15.7967 79.8788 15.23C79.8788 14.6567 79.9955 14.1533 80.2288 13.72C80.4622 13.2867 80.7888 12.9533 81.2088 12.72C81.6288 12.4867 82.1122 12.37 82.6588 12.37C83.1855 12.37 83.6555 12.4833 84.0688 12.71C84.4888 12.9367 84.8122 13.26 85.0388 13.68C85.2722 14.0933 85.3888 14.57 85.3888 15.11ZM83.9388 14.71C83.9322 14.35 83.8022 14.0633 83.5488 13.85C83.2955 13.63 82.9855 13.52 82.6188 13.52C82.2722 13.52 81.9788 13.6267 81.7388 13.84C81.5055 14.0467 81.3622 14.3367 81.3088 14.71H83.9388ZM91.2035 18.07C90.7168 18.07 90.2768 17.9867 89.8835 17.82C89.4968 17.6533 89.1902 17.4133 88.9635 17.1C88.7368 16.7867 88.6202 16.4167 88.6135 15.99H90.1135C90.1335 16.2767 90.2335 16.5033 90.4135 16.67C90.6002 16.8367 90.8535 16.92 91.1735 16.92C91.5002 16.92 91.7568 16.8433 91.9435 16.69C92.1302 16.53 92.2235 16.3233 92.2235 16.07C92.2235 15.8633 92.1602 15.6933 92.0335 15.56C91.9068 15.4267 91.7468 15.3233 91.5535 15.25C91.3668 15.17 91.1068 15.0833 90.7735 14.99C90.3202 14.8567 89.9502 14.7267 89.6635 14.6C89.3835 14.4667 89.1402 14.27 88.9335 14.01C88.7335 13.7433 88.6335 13.39 88.6335 12.95C88.6335 12.5367 88.7368 12.1767 88.9435 11.87C89.1502 11.5633 89.4402 11.33 89.8135 11.17C90.1868 11.0033 90.6135 10.92 91.0935 10.92C91.8135 10.92 92.3968 11.0967 92.8435 11.45C93.2968 11.7967 93.5468 12.2833 93.5935 12.91H92.0535C92.0402 12.67 91.9368 12.4733 91.7435 12.32C91.5568 12.16 91.3068 12.08 90.9935 12.08C90.7202 12.08 90.5002 12.15 90.3335 12.29C90.1735 12.43 90.0935 12.6333 90.0935 12.9C90.0935 13.0867 90.1535 13.2433 90.2735 13.37C90.4002 13.49 90.5535 13.59 90.7335 13.67C90.9202 13.7433 91.1802 13.83 91.5135 13.93C91.9668 14.0633 92.3368 14.1967 92.6235 14.33C92.9102 14.4633 93.1568 14.6633 93.3635 14.93C93.5702 15.1967 93.6735 15.5467 93.6735 15.98C93.6735 16.3533 93.5768 16.7 93.3835 17.02C93.1902 17.34 92.9068 17.5967 92.5335 17.79C92.1602 17.9767 91.7168 18.07 91.2035 18.07ZM100.037 15.11C100.037 15.31 100.024 15.49 99.9973 15.65H95.9473C95.9806 16.05 96.1206 16.3633 96.3673 16.59C96.6139 16.8167 96.9173 16.93 97.2773 16.93C97.7973 16.93 98.1673 16.7067 98.3873 16.26H99.8973C99.7373 16.7933 99.4306 17.2333 98.9773 17.58C98.5239 17.92 97.9673 18.09 97.3073 18.09C96.7739 18.09 96.2939 17.9733 95.8673 17.74C95.4473 17.5 95.1173 17.1633 94.8773 16.73C94.6439 16.2967 94.5273 15.7967 94.5273 15.23C94.5273 14.6567 94.6439 14.1533 94.8773 13.72C95.1106 13.2867 95.4373 12.9533 95.8573 12.72C96.2773 12.4867 96.7606 12.37 97.3073 12.37C97.8339 12.37 98.3039 12.4833 98.7173 12.71C99.1373 12.9367 99.4606 13.26 99.6873 13.68C99.9206 14.0933 100.037 14.57 100.037 15.11ZM98.5873 14.71C98.5806 14.35 98.4506 14.0633 98.1973 13.85C97.9439 13.63 97.6339 13.52 97.2673 13.52C96.9206 13.52 96.6273 13.6267 96.3873 13.84C96.1539 14.0467 96.0106 14.3367 95.9573 14.71H98.5873ZM100.699 15.23C100.699 14.6567 100.816 14.1567 101.049 13.73C101.282 13.2967 101.606 12.9633 102.019 12.73C102.432 12.49 102.906 12.37 103.439 12.37C104.126 12.37 104.692 12.5433 105.139 12.89C105.592 13.23 105.896 13.71 106.049 14.33H104.539C104.459 14.09 104.322 13.9033 104.129 13.77C103.942 13.63 103.709 13.56 103.429 13.56C103.029 13.56 102.712 13.7067 102.479 14C102.246 14.2867 102.129 14.6967 102.129 15.23C102.129 15.7567 102.246 16.1667 102.479 16.46C102.712 16.7467 103.029 16.89 103.429 16.89C103.996 16.89 104.366 16.6367 104.539 16.13H106.049C105.896 16.73 105.592 17.2067 105.139 17.56C104.686 17.9133 104.119 18.09 103.439 18.09C102.906 18.09 102.432 17.9733 102.019 17.74C101.606 17.5 101.282 17.1667 101.049 16.74C100.816 16.3067 100.699 15.8033 100.699 15.23ZM112.305 12.46V18H110.895V17.3C110.715 17.54 110.478 17.73 110.185 17.87C109.898 18.0033 109.585 18.07 109.245 18.07C108.811 18.07 108.428 17.98 108.095 17.8C107.761 17.6133 107.498 17.3433 107.305 16.99C107.118 16.63 107.025 16.2033 107.025 15.71V12.46H108.425V15.51C108.425 15.95 108.535 16.29 108.755 16.53C108.975 16.7633 109.275 16.88 109.655 16.88C110.041 16.88 110.345 16.7633 110.565 16.53C110.785 16.29 110.895 15.95 110.895 15.51V12.46H112.305ZM115.086 13.32C115.266 13.0267 115.499 12.7967 115.786 12.63C116.079 12.4633 116.413 12.38 116.786 12.38V13.85H116.416C115.976 13.85 115.643 13.9533 115.416 14.16C115.196 14.3667 115.086 14.7267 115.086 15.24V18H113.686V12.46H115.086V13.32ZM118.439 11.8C118.192 11.8 117.986 11.7233 117.819 11.57C117.659 11.41 117.579 11.2133 117.579 10.98C117.579 10.7467 117.659 10.5533 117.819 10.4C117.986 10.24 118.192 10.16 118.439 10.16C118.686 10.16 118.889 10.24 119.049 10.4C119.216 10.5533 119.299 10.7467 119.299 10.98C119.299 11.2133 119.216 11.41 119.049 11.57C118.889 11.7233 118.686 11.8 118.439 11.8ZM119.129 12.46V18H117.729V12.46H119.129ZM122.142 13.61V16.29C122.142 16.4767 122.186 16.6133 122.272 16.7C122.366 16.78 122.519 16.82 122.732 16.82H123.382V18H122.502C121.322 18 120.732 17.4267 120.732 16.28V13.61H120.072V12.46H120.732V11.09H122.142V12.46H123.382V13.61H122.142ZM129.689 12.46L126.259 20.62H124.769L125.969 17.86L123.749 12.46H125.319L126.749 16.33L128.199 12.46H129.689Z" fill="black" fill-opacity="0.8"/>
<rect x="42" y="24" width="90" height="4" rx="2" fill="#9C9C9C" fill-opacity="0.15"/>
<rect x="42" y="30" width="48" height="4" rx="2" fill="#9C9C9C" fill-opacity="0.15"/>
</g>
<defs>
<filter id="filter0_d_12_93" x="0" y="0" width="147" height="45" filterUnits="userSpaceOnUse" color-interpolation-filters="sRGB">
<feFlood flood-opacity="0" result="BackgroundImageFix"/>
<feColorMatrix in="SourceAlpha" type="matrix" values="0 0 0 0 0 0 0 0 0 0 0 0 0 0 0 0 0 0 127 0" result="hardAlpha"/>
<feMorphology radius="1" operator="erode" in="SourceAlpha" result="effect1_dropShadow_12_93"/>
<feOffset dy="2"/>
<feGaussianBlur stdDeviation="2"/>
<feComposite in2="hardAlpha" operator="out"/>
<feColorMatrix type="matrix" values="0 0 0 0 0 0 0 0 0 0 0 0 0 0 0 0 0 0 0.2 0"/>
<feBlend mode="normal" in2="BackgroundImageFix" result="effect1_dropShadow_12_93"/>
<feBlend mode="normal" in="SourceGraphic" in2="effect1_dropShadow_12_93" result="shape"/>
</filter>
<filter id="filter1_f_12_93" x="11" y="8.5" width="24" height="24" filterUnits="userSpaceOnUse" color-interpolation-filters="sRGB">
<feFlood flood-opacity="0" result="BackgroundImageFix"/>
<feBlend mode="normal" in="SourceGraphic" in2="BackgroundImageFix" result="shape"/>
<feGaussianBlur stdDeviation="2" result="effect1_foregroundBlur_12_93"/>
</filter>
</defs>
</svg>
