<svg width="42" height="16" viewBox="0 0 42 16" fill="none" xmlns="http://www.w3.org/2000/svg">
<path d="M6.94 15.24C5.52667 15.24 4.3 14.9867 3.26 14.48C2.23333 13.96 1.43333 13.2467 0.86 12.34C0.3 11.42 0.0200001 10.36 0.0200001 9.16C0.0200001 7.97333 0.226667 6.86667 0.64 5.84C1.06667 4.81333 1.66667 3.92667 2.44 3.18C3.21333 2.42 4.14 1.82667 5.22 1.4C6.3 0.973333 7.5 0.76 8.82 0.76C10.1533 0.76 11.3067 0.973333 12.28 1.4C13.2667 1.81333 14.06 2.41333 14.66 3.2L12.34 5.08C11.8733 4.52 11.34 4.12 10.74 3.88C10.1533 3.64 9.46667 3.52 8.68 3.52C7.85333 3.52 7.10667 3.66 6.44 3.94C5.78667 4.20667 5.22667 4.58667 4.76 5.08C4.29333 5.57333 3.93333 6.15333 3.68 6.82C3.42667 7.47333 3.3 8.18667 3.3 8.96C3.3 9.66667 3.45333 10.2867 3.76 10.82C4.06667 11.34 4.52 11.7467 5.12 12.04C5.73333 12.3333 6.48 12.48 7.36 12.48C8.02667 12.48 8.66667 12.3667 9.28 12.14C9.89333 11.9133 10.4867 11.56 11.06 11.08L12.3 13.54C11.5933 14.0867 10.7733 14.5067 9.84 14.8C8.92 15.0933 7.95333 15.24 6.94 15.24ZM9.46 13.04L10.5 7.78H13.46L12.3 13.54L9.46 13.04ZM17.9097 15L20.1697 3.64H15.6897L16.2297 0.999999H28.4297L27.8897 3.64H23.4297L21.1497 15H17.9097ZM27.373 15L30.173 0.999999H36.933C38.453 0.999999 39.613 1.27333 40.413 1.82C41.2263 2.36667 41.633 3.16 41.633 4.2C41.633 5.08 41.3996 5.82 40.933 6.42C40.4796 7.02 39.873 7.47333 39.113 7.78C38.353 8.08667 37.5263 8.24 36.633 8.24L37.153 7.44C38.3263 7.44 39.2596 7.71333 39.953 8.26C40.6596 8.79333 41.013 9.56667 41.013 10.58C41.013 11.5667 40.7396 12.3933 40.193 13.06C39.6596 13.7133 38.9196 14.2 37.973 14.52C37.0263 14.84 35.9396 15 34.713 15H27.373ZM31.093 12.56H34.913C35.8063 12.56 36.5063 12.3933 37.013 12.06C37.533 11.7133 37.793 11.2067 37.793 10.54C37.793 10.02 37.5996 9.65333 37.213 9.44C36.8396 9.21333 36.333 9.1 35.693 9.1H31.413L31.893 6.74H35.533C36.093 6.74 36.573 6.66667 36.973 6.52C37.3863 6.37333 37.6996 6.15333 37.913 5.86C38.1263 5.55333 38.233 5.18667 38.233 4.76C38.233 4.29333 38.053 3.96 37.693 3.76C37.333 3.54667 36.8263 3.44 36.173 3.44H32.893L31.093 12.56Z" fill="black" fill-opacity="0.3"/>
</svg>
