<svg width="76" height="76" viewBox="0 0 76 76" fill="none" xmlns="http://www.w3.org/2000/svg">
<path d="M35.8503 36.0921L33.7291 45.0018C33.6703 45.249 33.6408 45.3726 33.6197 45.4943C33.4879 46.2534 33.5781 47.0343 33.8794 47.7434C33.9277 47.8571 33.9845 47.9707 34.0982 48.1979C34.1731 48.3478 34.2105 48.4227 34.2274 48.4805C34.338 48.8602 34.0958 49.2521 33.7068 49.3229C33.6475 49.3337 33.5643 49.3337 33.3978 49.3337C31.8761 49.3337 29.3641 49.3337 28.0365 49.3337C26.485 49.3337 25.7092 49.3337 25.3141 48.8245C24.919 48.3151 25.1072 47.5578 25.4835 46.043L27.288 38.7791C27.627 37.4142 26.6013 36.0921 25.2032 36.0921C24.9065 36.0921 24.666 35.8499 24.666 35.5514V32.1196C24.666 28.833 25.3476 28.1471 28.6134 28.1471H46.2229C47.0509 28.1471 47.6754 27.9517 48.3503 27.4989C49.1386 26.97 50.1099 26.0084 50.8248 27.3455C51.5428 28.6885 51.582 34.3245 50.4038 35.5103C49.8258 36.0921 48.8953 36.0921 47.0345 36.0921H35.8503ZM35.8503 36.0921H33.8766" stroke="#EFEB05" stroke-width="1.5" stroke-linecap="round" stroke-linejoin="round"/>
<path d="M34 41.3333H35.1692C36.4368 41.3333 37.0707 41.3333 37.6261 41.2136C39.2195 40.8703 40.5684 39.8171 41.288 38.3545C41.5388 37.8447 41.6925 37.2299 42 36" stroke="#EFEB05" stroke-width="1.5"/>
<path d="M24.666 32H27.3698C28.9736 32 29.7755 32 30.4199 31.6017C31.0643 31.2035 31.4229 30.4863 32.1401 29.0518L32.666 28" stroke="#EFEB05" stroke-width="1.5"/>
<path d="M51.334 32H47.334" stroke="#EFEB05" stroke-width="1.5" stroke-linecap="round"/>
<g filter="url(#filter0_f_891_1229)">
<circle cx="38.0003" cy="38.0003" r="17.1429" fill="#1F8340" fill-opacity="0.1"/>
</g>
<defs>
<filter id="filter0_f_891_1229" x="0.857422" y="0.857422" width="74.2852" height="74.2861" filterUnits="userSpaceOnUse" color-interpolation-filters="sRGB">
<feFlood flood-opacity="0" result="BackgroundImageFix"/>
<feBlend mode="normal" in="SourceGraphic" in2="BackgroundImageFix" result="shape"/>
<feGaussianBlur stdDeviation="10" result="effect1_foregroundBlur_891_1229"/>
</filter>
</defs>
</svg>
