<svg width="76" height="76" viewBox="0 0 76 76" fill="none" xmlns="http://www.w3.org/2000/svg">
<path d="M24.6666 34.3334L31.3333 26.3334M31.3333 26.3334L38.5522 33.5523C38.9376 33.9377 39.1304 34.1304 39.3753 34.2319C39.6204 34.3334 39.8929 34.3334 40.4378 34.3334H51.3333L46.2658 28.2524C45.4794 27.3087 45.0862 26.8369 44.5488 26.5851C44.0112 26.3334 43.397 26.3334 42.1686 26.3334H31.3333Z" stroke="#1F8340" stroke-width="1.5" stroke-linecap="round" stroke-linejoin="round"/>
<path d="M36.6667 31.6666V47.6666H26V32.8095" stroke="#1F8340" stroke-width="1.5" stroke-linecap="round" stroke-linejoin="round"/>
<path d="M36.6666 47.6667H50V33" stroke="#1F8340" stroke-width="1.5" stroke-linecap="round" stroke-linejoin="round"/>
<path d="M27.3334 31V26.3334" stroke="#1F8340" stroke-width="1.5" stroke-linecap="round" stroke-linejoin="round"/>
<path d="M31.344 37H31.332" stroke="#1F8340" stroke-width="2" stroke-linecap="round" stroke-linejoin="round"/>
<path d="M31.3334 47.6667V42.3334" stroke="#1F8340" stroke-width="1.5" stroke-linecap="round" stroke-linejoin="round"/>
<path d="M42 39.6666H44.6667" stroke="#1F8340" stroke-width="1.5" stroke-linecap="round" stroke-linejoin="round"/>
<g filter="url(#filter0_f_396_155)">
<circle cx="38" cy="38" r="17.1429" fill="#1F8340" fill-opacity="0.1"/>
</g>
<defs>
<filter id="filter0_f_396_155" x="0.857178" y="0.857178" width="74.2858" height="74.2858" filterUnits="userSpaceOnUse" color-interpolation-filters="sRGB">
<feFlood flood-opacity="0" result="BackgroundImageFix"/>
<feBlend mode="normal" in="SourceGraphic" in2="BackgroundImageFix" result="shape"/>
<feGaussianBlur stdDeviation="10" result="effect1_foregroundBlur_396_155"/>
</filter>
</defs>
</svg>
