<svg width="33" height="32" viewBox="0 0 33 32" fill="none" xmlns="http://www.w3.org/2000/svg">
<path d="M18.8379 4.66699C23.8659 4.66699 26.3806 4.66699 27.9419 6.32699C29.5032 7.98699 29.5046 10.6577 29.5046 16.0003C29.5046 21.343 29.5046 24.0137 27.9419 25.6737C26.3792 27.3337 23.8659 27.3337 18.8379 27.3337H13.5046C8.47656 27.3337 5.96189 27.3337 4.40056 25.6737C2.83922 24.0137 2.83789 21.343 2.83789 16.0003C2.83789 10.6577 2.83789 7.98699 4.40056 6.32699C5.96322 4.66699 8.47656 4.66699 13.5046 4.66699H18.8379Z" stroke="white" stroke-width="1.5" stroke-linecap="round" stroke-linejoin="round"/>
<path d="M6.83789 20.6673C8.98322 17.818 13.9766 17.662 16.1712 20.6673M20.1712 12.6673H25.5046M20.1712 18.0007H22.8379M13.8366 13.6673C13.8366 14.2862 13.5907 14.8796 13.1531 15.3172C12.7156 15.7548 12.1221 16.0007 11.5032 16.0007C10.8844 16.0007 10.2909 15.7548 9.85331 15.3172C9.41572 14.8796 9.16989 14.2862 9.16989 13.6673C9.16989 13.0485 9.41572 12.455 9.85331 12.0174C10.2909 11.5798 10.8844 11.334 11.5032 11.334C12.1221 11.334 12.7156 11.5798 13.1531 12.0174C13.5907 12.455 13.8366 13.0485 13.8366 13.6673Z" stroke="white" stroke-width="1.5" stroke-linecap="round" stroke-linejoin="round"/>
</svg>
