<svg width="33" height="32" viewBox="0 0 33 32" fill="none" xmlns="http://www.w3.org/2000/svg">
<path d="M19.0254 20.0003C19.4032 20.0003 19.7312 19.8617 20.0094 19.5843C20.2876 19.307 20.4263 18.979 20.4254 18.6003C20.4245 18.2217 20.2858 17.8941 20.0094 17.6177C19.7329 17.3412 19.4049 17.2021 19.0254 17.2003C18.6458 17.1985 18.3183 17.3377 18.0427 17.6177C17.7672 17.8977 17.6281 18.2252 17.6254 18.6003C17.6227 18.9754 17.7618 19.3034 18.0427 19.5843C18.3236 19.8652 18.6512 20.0039 19.0254 20.0003ZM18.0254 15.7337H20.0254C20.0254 15.0892 20.0921 14.6172 20.2254 14.3177C20.3587 14.0181 20.6698 13.6234 21.1587 13.1337C21.8254 12.467 22.2698 11.9283 22.4921 11.5177C22.7143 11.107 22.8254 10.6234 22.8254 10.067C22.8254 9.06699 22.4752 8.25055 21.7747 7.61766C21.0743 6.98477 20.1578 6.66788 19.0254 6.66699C18.1143 6.66699 17.3201 6.92255 16.6427 7.43366C15.9654 7.94477 15.4929 8.62255 15.2254 9.46699L17.0254 10.2003C17.2254 9.64477 17.4978 9.22832 17.8427 8.95099C18.1876 8.67366 18.5818 8.53455 19.0254 8.53366C19.5587 8.53366 19.9921 8.68388 20.3254 8.98432C20.6587 9.28477 20.8254 9.6901 20.8254 10.2003C20.8254 10.5114 20.7365 10.8061 20.5587 11.0843C20.3809 11.3625 20.0698 11.7123 19.6254 12.1337C18.8921 12.7781 18.4423 13.2839 18.2761 13.651C18.1098 14.0181 18.0263 14.7123 18.0254 15.7337ZM11.0254 24.0003C10.2921 24.0003 9.6645 23.7394 9.14272 23.2177C8.62095 22.6959 8.35961 22.0679 8.35872 21.3337V5.33366C8.35872 4.60033 8.62006 3.97277 9.14272 3.45099C9.66539 2.92921 10.2929 2.66788 11.0254 2.66699H27.0254C27.7587 2.66699 28.3867 2.92833 28.9094 3.45099C29.4321 3.97366 29.6929 4.60121 29.6921 5.33366V21.3337C29.6921 22.067 29.4312 22.695 28.9094 23.2177C28.3876 23.7403 27.7596 24.0012 27.0254 24.0003H11.0254ZM5.69206 29.3337C4.95872 29.3337 4.33117 29.0728 3.80939 28.551C3.28761 28.0292 3.02628 27.4012 3.02539 26.667V8.00033H5.69206V26.667H24.3587V29.3337H5.69206Z" fill="white"/>
</svg>
