<svg width="202" height="16" viewBox="0 0 202 16" fill="none" xmlns="http://www.w3.org/2000/svg">
<path d="M0.58 15L3.38 0.999999H6.06L12.08 11.14L11.02 11.08L13.02 0.999999H16.22L13.42 15H10.76L4.72 4.86L5.8 4.92L3.78 15H0.58ZM16.7323 15L19.5323 0.999999H22.7923L19.9923 15H16.7323ZM30.6548 15.24C29.2282 15.24 27.9948 14.9867 26.9548 14.48C25.9282 13.96 25.1348 13.2467 24.5748 12.34C24.0148 11.42 23.7348 10.36 23.7348 9.16C23.7348 7.97333 23.9415 6.86667 24.3548 5.84C24.7815 4.81333 25.3748 3.92667 26.1348 3.18C26.9082 2.42 27.8215 1.82667 28.8748 1.4C29.9415 0.973333 31.1282 0.76 32.4348 0.76C33.6882 0.76 34.7948 0.973333 35.7548 1.4C36.7148 1.82667 37.4415 2.44 37.9348 3.24L35.5948 5.16C35.2348 4.62667 34.7748 4.22 34.2148 3.94C33.6548 3.66 32.9882 3.52 32.2148 3.52C31.4282 3.52 30.7148 3.66 30.0748 3.94C29.4348 4.20667 28.8815 4.59333 28.4148 5.1C27.9615 5.59333 27.6148 6.17333 27.3748 6.84C27.1348 7.50667 27.0148 8.21333 27.0148 8.96C27.0148 9.66667 27.1682 10.2867 27.4748 10.82C27.7815 11.34 28.2282 11.7467 28.8148 12.04C29.4015 12.3333 30.1082 12.48 30.9348 12.48C31.6548 12.48 32.3282 12.3533 32.9548 12.1C33.5815 11.8333 34.1482 11.42 34.6548 10.86L36.5748 12.82C35.8415 13.6733 34.9682 14.2933 33.9548 14.68C32.9548 15.0533 31.8548 15.24 30.6548 15.24ZM44.9298 15.24C43.5165 15.24 42.2965 14.9867 41.2698 14.48C40.2565 13.96 39.4765 13.2467 38.9298 12.34C38.3832 11.42 38.1098 10.36 38.1098 9.16C38.1098 7.96 38.3165 6.85333 38.7298 5.84C39.1432 4.81333 39.7298 3.92667 40.4898 3.18C41.2632 2.42 42.1765 1.82667 43.2298 1.4C44.2965 0.973333 45.4765 0.76 46.7698 0.76C48.1832 0.76 49.3965 1.02 50.4098 1.54C51.4365 2.04667 52.2232 2.76 52.7698 3.68C53.3165 4.58667 53.5898 5.64 53.5898 6.84C53.5898 8.04 53.3832 9.15333 52.9698 10.18C52.5565 11.1933 51.9632 12.08 51.1898 12.84C50.4298 13.5867 49.5165 14.1733 48.4498 14.6C47.3965 15.0267 46.2232 15.24 44.9298 15.24ZM45.2098 12.48C45.9965 12.48 46.7032 12.34 47.3298 12.06C47.9698 11.7667 48.5098 11.3667 48.9498 10.86C49.3898 10.3533 49.7232 9.77333 49.9498 9.12C50.1898 8.45333 50.3098 7.75333 50.3098 7.02C50.3098 6.32667 50.1632 5.72 49.8698 5.2C49.5765 4.66667 49.1432 4.25333 48.5698 3.96C48.0098 3.66667 47.3165 3.52 46.4898 3.52C45.7032 3.52 44.9965 3.66667 44.3698 3.96C43.7432 4.24 43.2032 4.63333 42.7498 5.14C42.3098 5.64667 41.9698 6.23333 41.7298 6.9C41.5032 7.55333 41.3898 8.24667 41.3898 8.98C41.3898 9.67333 41.5365 10.2867 41.8298 10.82C42.1365 11.34 42.5698 11.7467 43.1298 12.04C43.7032 12.3333 44.3965 12.48 45.2098 12.48ZM54.5448 15L57.3448 0.999999H60.0248L66.0448 11.14L64.9848 11.08L66.9848 0.999999H70.1848L67.3848 15H64.7248L58.6848 4.86L59.7648 4.92L57.7448 15H54.5448ZM76.3613 15L79.1613 0.999999H82.4213L79.6213 15H76.3613ZM82.9238 15L85.7238 0.999999H88.4038L94.4238 11.14L93.3637 11.08L95.3638 0.999999H98.5638L95.7638 15H93.1038L87.0638 4.86L88.1438 4.92L86.1238 15H82.9238ZM103.956 15.24C103.196 15.24 102.456 15.1667 101.736 15.02C101.029 14.8867 100.383 14.7 99.7961 14.46C99.2228 14.22 98.7361 13.96 98.3361 13.68L99.6561 11.18C100.096 11.4867 100.563 11.7533 101.056 11.98C101.563 12.1933 102.089 12.36 102.636 12.48C103.183 12.5867 103.729 12.64 104.276 12.64C104.876 12.64 105.389 12.5733 105.816 12.44C106.256 12.3067 106.589 12.12 106.816 11.88C107.056 11.64 107.176 11.3467 107.176 11C107.176 10.68 107.049 10.42 106.796 10.22C106.543 10.02 106.209 9.85333 105.796 9.72C105.396 9.57333 104.949 9.43333 104.456 9.3C103.963 9.16667 103.463 9.01333 102.956 8.84C102.463 8.65333 102.009 8.42667 101.596 8.16C101.196 7.88 100.869 7.52667 100.616 7.1C100.363 6.67333 100.236 6.14 100.236 5.5C100.236 4.54 100.496 3.70667 101.016 3C101.549 2.29333 102.296 1.74667 103.256 1.36C104.216 0.96 105.343 0.76 106.636 0.76C107.583 0.76 108.476 0.866666 109.316 1.08C110.156 1.28 110.876 1.57333 111.476 1.96L110.256 4.44C109.723 4.08 109.129 3.81333 108.476 3.64C107.823 3.45333 107.149 3.36 106.456 3.36C105.829 3.36 105.289 3.43333 104.836 3.58C104.396 3.72667 104.056 3.93333 103.816 4.2C103.589 4.45333 103.476 4.74667 103.476 5.08C103.476 5.41333 103.596 5.68667 103.836 5.9C104.089 6.1 104.423 6.27333 104.836 6.42C105.249 6.55333 105.703 6.68667 106.196 6.82C106.689 6.95333 107.183 7.10667 107.676 7.28C108.169 7.45333 108.623 7.67333 109.036 7.94C109.449 8.20667 109.783 8.54667 110.036 8.96C110.289 9.36 110.416 9.86667 110.416 10.48C110.416 11.44 110.149 12.28 109.616 13C109.083 13.7067 108.329 14.26 107.356 14.66C106.396 15.0467 105.263 15.24 103.956 15.24ZM118.43 15.24C117.07 15.24 115.937 14.9733 115.03 14.44C114.123 13.9067 113.483 13.1667 113.11 12.22C112.75 11.26 112.697 10.1333 112.95 8.84L114.51 0.999999H117.77L116.21 8.78C116.09 9.40667 116.057 9.95333 116.11 10.42C116.163 10.8867 116.297 11.2733 116.51 11.58C116.737 11.8867 117.043 12.1133 117.43 12.26C117.817 12.4067 118.27 12.48 118.79 12.48C119.443 12.48 120.01 12.3533 120.49 12.1C120.97 11.8467 121.37 11.4467 121.69 10.9C122.01 10.3533 122.257 9.64667 122.43 8.78L123.99 0.999999H127.17L125.59 8.98C125.177 11.0467 124.37 12.6067 123.17 13.66C121.97 14.7133 120.39 15.24 118.43 15.24ZM127.592 15L130.392 0.999999H136.092C137.838 0.999999 139.185 1.38 140.132 2.14C141.092 2.9 141.572 3.96667 141.572 5.34C141.572 6.51333 141.292 7.53333 140.732 8.4C140.185 9.25333 139.398 9.91333 138.372 10.38C137.358 10.8467 136.158 11.08 134.772 11.08H130.212L131.912 9.66L130.852 15H127.592ZM136.592 15L133.732 9.92H137.132L140.012 15H136.592ZM131.832 10.04L130.712 8.5H134.892C135.972 8.5 136.805 8.26 137.392 7.78C137.992 7.28667 138.292 6.57333 138.292 5.64C138.292 4.96 138.058 4.46 137.592 4.14C137.138 3.80667 136.498 3.64 135.672 3.64H131.732L133.432 2.06L131.832 10.04ZM140.459 15L149.499 0.999999H152.719L156.159 15H152.919L150.199 2.6H151.479L143.919 15H140.459ZM144.199 12L145.519 9.54H152.739L153.119 12H144.199ZM157.611 15L160.411 0.999999H163.091L169.111 11.14L168.051 11.08L170.051 0.999999H173.251L170.451 15H167.791L161.751 4.86L162.831 4.92L160.811 15H157.611ZM181.124 15.24C179.697 15.24 178.464 14.9867 177.424 14.48C176.397 13.96 175.604 13.2467 175.044 12.34C174.484 11.42 174.204 10.36 174.204 9.16C174.204 7.97333 174.41 6.86667 174.824 5.84C175.25 4.81333 175.844 3.92667 176.604 3.18C177.377 2.42 178.29 1.82667 179.344 1.4C180.41 0.973333 181.597 0.76 182.904 0.76C184.157 0.76 185.264 0.973333 186.224 1.4C187.184 1.82667 187.91 2.44 188.404 3.24L186.064 5.16C185.704 4.62667 185.244 4.22 184.684 3.94C184.124 3.66 183.457 3.52 182.684 3.52C181.897 3.52 181.184 3.66 180.544 3.94C179.904 4.20667 179.35 4.59333 178.884 5.1C178.43 5.59333 178.084 6.17333 177.844 6.84C177.604 7.50667 177.484 8.21333 177.484 8.96C177.484 9.66667 177.637 10.2867 177.944 10.82C178.25 11.34 178.697 11.7467 179.284 12.04C179.87 12.3333 180.577 12.48 181.404 12.48C182.124 12.48 182.797 12.3533 183.424 12.1C184.05 11.8333 184.617 11.42 185.124 10.86L187.044 12.82C186.31 13.6733 185.437 14.2933 184.424 14.68C183.424 15.0533 182.324 15.24 181.124 15.24ZM193.092 6.64H199.832L199.332 9.16H192.592L193.092 6.64ZM192.172 12.4H199.812L199.272 15H188.432L191.232 0.999999H201.812L201.272 3.6H193.932L192.172 12.4Z" fill="black" fill-opacity="0.3"/>
</svg>
