<svg width="75" height="76" viewBox="0 0 75 76" fill="none" xmlns="http://www.w3.org/2000/svg">
<path d="M24 21.6641H48" stroke="white" stroke-width="1.5" stroke-linecap="round" stroke-linejoin="round"/>
<path d="M34.276 47.6142L34.3529 46.141M34.3529 46.141C34.7492 46.2435 35.4408 46.4259 35.7973 46.6151C38.9139 48.2682 39.6327 48.8615 40.8801 47.8155L46.1448 42.6154C47.2059 41.3813 46.6195 40.657 44.9977 37.5275C44.8123 37.1694 44.5904 36.523 44.492 36.1262M34.3529 46.141C32.8475 45.7514 31.4829 45.8711 30.5587 45.1626C30.4075 45.0467 28.9442 43.5329 27.8691 42.4477C27.0613 41.6323 27.8756 40.8774 28.582 40.0541C29.031 39.5309 29.4332 38.959 29.9188 38.4695C32.6103 35.7565 34.4052 33.9779 37.1235 31.3506C37.6491 30.8425 38.2695 30.4221 38.8311 29.954C39.4655 29.4253 40.1423 28.8864 40.9105 29.5662C42.0559 30.5797 43.4857 32.1289 43.6001 32.2811C44.2996 33.2115 44.1181 34.6189 44.492 36.1262M34.3529 46.141L44.492 36.1262M44.492 36.1262L45.9811 35.9438M30.7009 45.263L31.9848 43.6217M34.6597 38.3375L36.9588 36.1863M42.0087 33.6223L43.8932 32.8093M36.9267 31.4864L35.808 30.3147C35.2992 29.7817 35.3203 28.9375 35.8551 28.4305L36.9237 27.4176C37.4468 26.9216 38.2701 26.9311 38.7817 27.4389L40.706 29.349M29.8726 38.6262L28.7134 37.4945C28.1861 36.9797 27.3405 36.9899 26.826 37.5175L25.798 38.5715C25.2947 39.0875 25.2938 39.9097 25.7958 40.4269L27.6842 42.3725" stroke="white" stroke-width="1.5" stroke-linecap="round" stroke-linejoin="round"/>
<g filter="url(#filter0_f_891_1223)">
<circle cx="37.5003" cy="38.0003" r="17.1429" fill="#1F8340" fill-opacity="0.1"/>
</g>
<defs>
<filter id="filter0_f_891_1223" x="0.357422" y="0.857422" width="74.2852" height="74.2861" filterUnits="userSpaceOnUse" color-interpolation-filters="sRGB">
<feFlood flood-opacity="0" result="BackgroundImageFix"/>
<feBlend mode="normal" in="SourceGraphic" in2="BackgroundImageFix" result="shape"/>
<feGaussianBlur stdDeviation="10" result="effect1_foregroundBlur_891_1223"/>
</filter>
</defs>
</svg>
