<svg width="100" height="100" viewBox="0 0 100 100" fill="none" xmlns="http://www.w3.org/2000/svg">
<circle cx="50" cy="50" r="50" fill="#A4FEA6"/>
<circle cx="50.0005" cy="50.0005" r="44.1176" fill="#56FF59"/>
<path d="M55.5874 31.8525C52.5223 31.8544 49.5834 33.0728 47.4161 35.2401C45.2488 37.4074 44.0304 40.3463 44.0285 43.4114C44.0285 44.0943 44.1168 44.7525 44.2227 45.3596C44.2374 45.436 44.234 45.5149 44.2125 45.5897C44.191 45.6645 44.1522 45.7332 44.0991 45.7902L33.0962 56.7949C32.186 57.7046 31.6743 58.9386 31.6738 60.2255V64.0584C31.6738 65.7631 33.0574 67.1467 34.7621 67.1467H39.1738C39.9929 67.1467 40.7784 66.8213 41.3575 66.2421C41.9367 65.663 42.2621 64.8775 42.2621 64.0584V61.8525H45.3521C46.5697 61.8525 47.5579 60.8643 47.5579 59.6467V56.5584H48.1421C48.3244 56.2761 48.5468 56.0308 48.8091 55.8225L45.9062 52.9178C45.3275 52.3387 45.0024 51.5536 45.0024 50.7349C45.0024 49.9162 45.3275 49.131 45.9062 48.552L49.4356 45.0225C49.8942 44.5644 50.4854 44.2622 51.1253 44.1587C51.7652 44.0553 52.4215 44.1558 53.0011 44.4461C53.5807 44.7364 54.0543 45.2017 54.3547 45.7762C54.6552 46.3506 54.7672 47.005 54.675 47.6467H58.2344C60.675 47.6463 63.0408 48.4892 64.9315 50.0325C66.3744 48.0602 67.1497 45.6787 67.1444 43.2349C67.1444 36.8272 61.9332 31.8525 55.5856 31.8525M58.2327 38.382C58.8177 38.382 59.3788 38.6144 59.7924 39.028C60.2061 39.4417 60.4385 40.0028 60.4385 40.5878C60.4385 41.1729 60.2061 41.7339 59.7924 42.1476C59.3788 42.5613 58.8177 42.7937 58.2327 42.7937C57.6476 42.7937 57.0865 42.5613 56.6729 42.1476C56.2592 41.7339 56.0268 41.1729 56.0268 40.5878C56.0268 40.0028 56.2592 39.4417 56.6729 39.028C57.0865 38.6144 57.6476 38.382 58.2327 38.382ZM52.5503 48.1408C52.6803 48.0196 52.7846 47.8735 52.857 47.7111C52.9293 47.5488 52.9682 47.3735 52.9713 47.1958C52.9745 47.0181 52.9418 46.8416 52.8752 46.6768C52.8087 46.512 52.7096 46.3623 52.5839 46.2366C52.4582 46.1109 52.3085 46.0118 52.1437 45.9453C51.9789 45.8787 51.8024 45.846 51.6247 45.8491C51.447 45.8523 51.2717 45.8912 51.1093 45.9635C50.947 46.0359 50.8009 46.1402 50.6797 46.2702L47.1503 49.7996C46.9024 50.0478 46.7632 50.3842 46.7632 50.7349C46.7632 51.0856 46.9024 51.422 47.1503 51.6702L50.6797 55.1996C50.8009 55.3296 50.947 55.4339 51.1093 55.5063C51.2717 55.5786 51.447 55.6175 51.6247 55.6206C51.8024 55.6238 51.9789 55.5911 52.1437 55.5245C52.3085 55.458 52.4582 55.3589 52.5839 55.2332C52.7096 55.1075 52.8087 54.9578 52.8752 54.793C52.9418 54.6282 52.9745 54.4517 52.9713 54.274C52.9682 54.0963 52.9293 53.921 52.857 53.7586C52.7846 53.5963 52.6803 53.4502 52.5503 53.329L51.2797 52.0584H58.2344C59.456 52.0584 60.6502 52.4207 61.6659 53.0993C62.6816 53.778 63.4732 54.7427 63.9407 55.8713C64.4082 56.9999 64.5305 58.2417 64.2922 59.4399C64.0539 60.638 63.4656 61.7385 62.6018 62.6023C61.738 63.4661 60.6375 64.0544 59.4394 64.2927C58.2413 64.531 56.9994 64.4087 55.8708 63.9412C54.7422 63.4737 53.7775 62.6821 53.0989 61.6664C52.4202 60.6506 52.0579 59.4565 52.0579 58.2349C52.0579 57.8839 51.9185 57.5472 51.6703 57.299C51.4221 57.0508 51.0854 56.9114 50.7344 56.9114C50.3834 56.9114 50.0467 57.0508 49.7985 57.299C49.5503 57.5472 49.4109 57.8839 49.4109 58.2349C49.4109 59.98 49.9284 61.686 50.8979 63.137C51.8675 64.588 53.2455 65.7189 54.8578 66.3868C56.4701 67.0546 58.2442 67.2293 59.9558 66.8889C61.6674 66.5484 63.2396 65.7081 64.4736 64.4741C65.7076 63.2401 66.5479 61.6679 66.8884 59.9563C67.2289 58.2447 67.0541 56.4706 66.3863 54.8583C65.7185 53.246 64.5875 51.8679 63.1365 50.8984C61.6855 49.9289 59.9795 49.4114 58.2344 49.4114H51.2815L52.5503 48.1408Z" fill="#0F5F01"/>
</svg>
