<svg width="100" height="100" viewBox="0 0 100 100" fill="none" xmlns="http://www.w3.org/2000/svg">
<circle cx="50" cy="50" r="50" fill="#A4FEA6"/>
<circle cx="50.0005" cy="50.0005" r="44.1176" fill="#56FF59"/>
<path d="M50 29.75C47.6794 29.75 45.4538 30.6719 43.8128 32.3128C42.1719 33.9538 41.25 36.1794 41.25 38.5V42H39.5C38.5717 42 37.6815 42.3687 37.0251 43.0251C36.3687 43.6815 36 44.5717 36 45.5V63C36 63.9283 36.3687 64.8185 37.0251 65.4749C37.6815 66.1312 38.5717 66.5 39.5 66.5H60.5C61.4283 66.5 62.3185 66.1312 62.9749 65.4749C63.6313 64.8185 64 63.9283 64 63V45.5C64 44.5717 63.6313 43.6815 62.9749 43.0251C62.3185 42.3687 61.4283 42 60.5 42H58.75V38.5C58.75 37.3509 58.5237 36.2131 58.0839 35.1515C57.6442 34.0899 56.9997 33.1253 56.1872 32.3128C55.3747 31.5003 54.4101 30.8558 53.3485 30.4161C52.2869 29.9763 51.1491 29.75 50 29.75ZM50 33.075C52.9925 33.075 55.425 35.5075 55.425 38.5V42H44.575V38.5C44.575 35.5075 47.0075 33.075 50 33.075ZM50.3325 46.375C51.9775 46.375 53.29 46.7425 54.235 47.46C55.18 48.195 55.6525 49.175 55.6525 50.4C55.6525 51.17 55.39 51.8525 54.8825 52.5C54.375 53.13 53.71 53.62 52.905 53.9875C52.45 54.25 52.1525 54.5125 51.995 54.81C51.8375 55.125 51.75 55.51 51.75 56H48.25C48.25 55.125 48.425 54.53 48.7575 54.11C49.125 53.69 49.72 53.2 50.63 52.64C51.085 52.395 51.4525 52.08 51.75 51.695C51.995 51.3275 52.135 50.89 52.135 50.4C52.135 49.875 51.9775 49.49 51.6625 49.1925C51.3475 48.8775 50.875 48.7375 50.3325 48.7375C49.86 48.7375 49.475 48.86 49.125 49.105C48.845 49.35 48.67 49.7175 48.67 50.2075H45.2225C45.135 49 45.625 47.95 46.5875 47.32C47.5325 46.69 48.775 46.375 50.3325 46.375ZM48.25 57.75H51.75V61.25H48.25V57.75Z" fill="#0F5F01"/>
</svg>
