<svg width="100" height="100" viewBox="0 0 100 100" fill="none" xmlns="http://www.w3.org/2000/svg">
<circle cx="50" cy="50" r="50" fill="#A4FEA6"/>
<circle cx="50.0005" cy="50.0005" r="44.1176" fill="#56FF59"/>
<path d="M50.1025 31.5C59.78 31.5 67.62 39.375 67.62 49C67.62 58.625 59.78 66.5 50.1025 66.5C43.96 66.5 38.5875 63.315 35.455 58.5025L38.22 56.315C40.6875 60.3225 45.08 63 50.12 63C53.833 63 57.394 61.525 60.0195 58.8995C62.645 56.274 64.12 52.713 64.12 49C64.12 45.287 62.645 41.726 60.0195 39.1005C57.394 36.475 53.833 35 50.12 35C42.98 35 37.1 40.355 36.2425 47.25H41.0725L34.5275 53.7775L28 47.25H32.7075C33.5825 38.4125 41.0375 31.5 50.1025 31.5ZM55.2825 45.92C56.1575 45.9375 56.875 46.6375 56.875 47.53V55.5975C56.875 56.4725 56.1575 57.2075 55.265 57.2075H45.5875C44.695 57.2075 43.9775 56.4725 43.9775 55.5975V47.53C43.9775 46.6375 44.695 45.9375 45.57 45.92V44.1525C45.57 41.475 47.7575 39.305 50.4175 39.305C53.095 39.305 55.2825 41.475 55.2825 44.1525V45.92ZM50.4175 41.755C49.105 41.755 48.02 42.8225 48.02 44.1525V45.92H52.8325V44.1525C52.8325 42.8225 51.7475 41.755 50.4175 41.755Z" fill="#0F5F01"/>
</svg>
