<svg width="76" height="76" viewBox="0 0 76 76" fill="none" xmlns="http://www.w3.org/2000/svg">
<path d="M24.5 21.6637H48.5" stroke="#1F8340" stroke-width="1.5" stroke-linecap="round" stroke-linejoin="round"/>
<path d="M34.7753 47.6138L34.8523 46.1406M34.8523 46.1406C35.2485 46.2432 35.9401 46.4256 36.2967 46.6148C39.4132 48.2678 40.132 48.8612 41.3795 47.8152L46.6441 42.615C47.7052 41.3809 47.1188 40.6566 45.4971 37.5272C45.3116 37.169 45.0897 36.5226 44.9913 36.1258M34.8523 46.1406C33.3468 45.751 31.9822 45.8708 31.058 45.1622C30.9069 45.0464 29.4435 43.5325 28.3684 42.4473C27.5607 41.632 28.3749 40.877 29.0814 40.0537C29.5303 39.5305 29.9325 38.9586 30.4181 38.4692C33.1096 35.7561 34.9045 33.9776 37.6228 31.3503C38.1484 30.8422 38.7688 30.4217 39.3304 29.9536C39.9648 29.4249 40.6416 28.8861 41.4099 29.5659C42.5552 30.5794 43.9851 32.1286 44.0995 32.2808C44.7989 33.2112 44.6175 34.6185 44.9913 36.1258M34.8523 46.1406L44.9913 36.1258M44.9913 36.1258L46.4804 35.9434M31.2002 45.2626L32.4841 43.6213M35.1591 38.3372L37.4581 36.186M42.508 33.622L44.3925 32.8089M37.426 31.4861L36.3073 30.3143C35.7985 29.7813 35.8196 28.9372 36.3544 28.4302L37.4231 27.4172C37.9461 26.9213 38.7695 26.9307 39.2811 27.4386L41.2053 29.3487M30.3719 38.6258L29.2127 37.4941C28.6855 36.9793 27.8399 36.9896 27.3254 37.5172L26.2974 38.5712C25.7941 39.0872 25.7931 39.9093 26.2952 40.4265L28.1835 42.3721" stroke="#1F8340" stroke-width="1.5" stroke-linecap="round" stroke-linejoin="round"/>
<g filter="url(#filter0_f_396_123)">
<circle cx="38.0003" cy="38" r="17.1429" fill="#1F8340" fill-opacity="0.1"/>
</g>
<defs>
<filter id="filter0_f_396_123" x="0.857422" y="0.857178" width="74.2857" height="74.2858" filterUnits="userSpaceOnUse" color-interpolation-filters="sRGB">
<feFlood flood-opacity="0" result="BackgroundImageFix"/>
<feBlend mode="normal" in="SourceGraphic" in2="BackgroundImageFix" result="shape"/>
<feGaussianBlur stdDeviation="10" result="effect1_foregroundBlur_396_123"/>
</filter>
</defs>
</svg>
