<svg width="76" height="76" viewBox="0 0 76 76" fill="none" xmlns="http://www.w3.org/2000/svg">
<path d="M24.5 21.6636H48.5" stroke="#1F8340" stroke-width="1.5" stroke-linecap="round" stroke-linejoin="round"/>
<path d="M34.776 47.6139L34.8529 46.1407M34.8529 46.1407C35.2492 46.2433 35.9408 46.4257 36.2973 46.6149C39.4139 48.2679 40.1327 48.8613 41.3801 47.8153L46.6448 42.6151C47.7059 41.381 47.1195 40.6567 45.4977 37.5273C45.3123 37.1691 45.0904 36.5227 44.992 36.1259M34.8529 46.1407C33.3475 45.7511 31.9829 45.8709 31.0587 45.1623C30.9075 45.0465 29.4442 43.5326 28.3691 42.4474C27.5613 41.6321 28.3756 40.8771 29.082 40.0538C29.531 39.5306 29.9332 38.9587 30.4188 38.4693C33.1103 35.7562 34.9052 33.9777 37.6235 31.3504C38.1491 30.8423 38.7695 30.4219 39.3311 29.9537C39.9655 29.425 40.6423 28.8862 41.4105 29.566C42.5559 30.5795 43.9857 32.1287 44.1001 32.2809C44.7996 33.2113 44.6181 34.6186 44.992 36.1259M34.8529 46.1407L44.992 36.1259M44.992 36.1259L46.4811 35.9435M31.2009 45.2627L32.4848 43.6214M35.1597 38.3373L37.4588 36.1861M42.5087 33.6221L44.3932 32.809M37.4267 31.4862L36.308 30.3144C35.7992 29.7814 35.8203 28.9373 36.3551 28.4303L37.4237 27.4173C37.9468 26.9214 38.7701 26.9309 39.2817 27.4387L41.206 29.3488M30.3726 38.6259L29.2134 37.4942C28.6861 36.9794 27.8405 36.9897 27.326 37.5173L26.298 38.5713C25.7947 39.0873 25.7938 39.9094 26.2958 40.4266L28.1842 42.3722" stroke="#1F8340" stroke-width="1.5" stroke-linecap="round" stroke-linejoin="round"/>
<g filter="url(#filter0_f_408_209)">
<circle cx="38.0003" cy="38" r="17.1429" fill="#1F8340" fill-opacity="0.1"/>
</g>
<defs>
<filter id="filter0_f_408_209" x="0.857422" y="0.857178" width="74.2852" height="74.2856" filterUnits="userSpaceOnUse" color-interpolation-filters="sRGB">
<feFlood flood-opacity="0" result="BackgroundImageFix"/>
<feBlend mode="normal" in="SourceGraphic" in2="BackgroundImageFix" result="shape"/>
<feGaussianBlur stdDeviation="10" result="effect1_foregroundBlur_408_209"/>
</filter>
</defs>
</svg>
